<svg width="754" height="377" viewBox="0 0 754 377" fill="none" xmlns="http://www.w3.org/2000/svg">
<path d="M137.351 180.195L124.983 167.824L135.119 157.684C138.897 153.904 138.897 147.776 135.116 143.998C131.337 140.218 125.209 140.216 121.428 143.999L109.995 155.435C103.145 162.279 103.136 173.363 109.992 180.211L123.66 193.883L103.845 213.696L87.4946 197.346C72.9292 182.78 72.9732 159.188 87.6079 144.672L128.911 103.695C135.081 109.837 144.184 118.895 150.764 125.431C162.253 136.838 162.147 155.395 150.663 166.88L137.351 180.195ZM177.676 260.56L97.3652 340.867L88.2106 331.711C67.5319 311.036 67.5292 277.392 88.2026 256.716C99.6626 245.256 153.449 191.472 164.353 180.568C183.415 161.504 183.517 130.668 164.405 111.695C153.523 100.889 135.756 83.1922 135.753 83.1922C131.983 79.4348 125.887 79.4295 122.107 83.1775L73.9746 130.93C51.7306 152.991 51.6466 188.874 73.8052 211.032L90.1573 227.386C72.7466 244.796 73.4466 244.006 70.9506 246.892L62.7893 238.722C44.4706 220.791 34.3839 196.799 34.3839 171.164C34.3839 146.29 43.9613 122.806 61.2826 105.108L128.933 37.3722L183.324 91.7642C213.173 121.611 210.532 167.535 180.684 197.384L101.401 276.13C97.6212 279.91 97.6212 286.038 101.401 289.818C105.18 293.596 111.311 293.595 115.088 289.818L194.373 211.072C197.413 208.032 200.179 204.826 202.723 201.502C205.103 224.083 194.329 243.908 177.676 260.56ZM216.567 176.286C228.977 142.303 224.236 105.299 197.015 78.0762L135.775 16.8349C131.993 13.0522 125.86 13.0562 122.081 16.8402L47.5186 91.4988C3.63726 136.327 4.14658 208.407 49.1692 252.478L60.1639 263.483C47.6226 290.304 52.4053 323.287 74.5239 345.399C74.5239 345.399 90.3599 361.248 90.5173 361.404C94.2959 365.18 100.425 365.186 104.205 361.404L191.365 274.248C217.993 247.62 229.504 211.382 216.567 176.286Z" fill="url(#paint0_linear_1_33)"/>
<path d="M289.217 237V142.455H326.518C333.689 142.455 339.799 143.824 344.846 146.563C349.893 149.272 353.74 153.042 356.387 157.874C359.065 162.675 360.403 168.215 360.403 174.493C360.403 180.771 359.049 186.311 356.341 191.112C353.633 195.913 349.709 199.653 344.569 202.33C339.46 205.008 333.274 206.347 326.011 206.347H302.236V190.327H322.779C326.626 190.327 329.796 189.666 332.289 188.342C334.813 186.988 336.69 185.126 337.921 182.756C339.183 180.356 339.814 177.601 339.814 174.493C339.814 171.354 339.183 168.615 337.921 166.276C336.69 163.906 334.813 162.075 332.289 160.782C329.765 159.459 326.565 158.797 322.687 158.797H309.207V237H289.217ZM403.734 142.455V237H384.068V142.455H403.734ZM450.758 238.339C446.234 238.339 442.202 237.554 438.663 235.984C435.124 234.384 432.323 232.03 430.261 228.921C428.23 225.782 427.214 221.873 427.214 217.195C427.214 213.256 427.937 209.948 429.384 207.27C430.83 204.592 432.8 202.438 435.293 200.807C437.786 199.176 440.617 197.945 443.787 197.114C446.988 196.283 450.343 195.698 453.851 195.359C457.975 194.929 461.299 194.528 463.823 194.159C466.346 193.759 468.178 193.174 469.316 192.405C470.455 191.635 471.024 190.497 471.024 188.989V188.712C471.024 185.788 470.101 183.526 468.254 181.925C466.439 180.325 463.853 179.525 460.499 179.525C456.959 179.525 454.143 180.31 452.051 181.879C449.958 183.418 448.573 185.357 447.896 187.696L429.707 186.219C430.63 181.91 432.446 178.186 435.154 175.047C437.863 171.877 441.356 169.446 445.634 167.753C449.942 166.029 454.928 165.168 460.591 165.168C464.531 165.168 468.301 165.629 471.902 166.553C475.533 167.476 478.749 168.907 481.55 170.846C484.381 172.785 486.613 175.278 488.244 178.325C489.875 181.341 490.691 184.957 490.691 189.173V237H472.04V227.167H471.486C470.347 229.383 468.824 231.337 466.916 233.03C465.008 234.692 462.715 236 460.037 236.954C457.36 237.877 454.267 238.339 450.758 238.339ZM456.39 224.766C459.283 224.766 461.838 224.197 464.053 223.058C466.269 221.889 468.008 220.319 469.27 218.349C470.532 216.38 471.163 214.148 471.163 211.656V204.131C470.547 204.531 469.701 204.9 468.624 205.239C467.577 205.546 466.393 205.839 465.069 206.116C463.746 206.362 462.422 206.593 461.099 206.808C459.776 206.993 458.575 207.162 457.498 207.316C455.19 207.655 453.174 208.193 451.451 208.932C449.727 209.671 448.388 210.671 447.434 211.933C446.48 213.164 446.003 214.702 446.003 216.549C446.003 219.227 446.973 221.273 448.911 222.689C450.881 224.074 453.374 224.766 456.39 224.766ZM536.664 196.006V237H516.998V166.091H535.741V178.602H536.572C538.141 174.478 540.773 171.215 544.466 168.815C548.159 166.383 552.637 165.168 557.9 165.168C562.824 165.168 567.118 166.245 570.78 168.399C574.442 170.554 577.289 173.631 579.32 177.632C581.352 181.602 582.367 186.342 582.367 191.851V237H562.701V195.359C562.732 191.02 561.624 187.635 559.377 185.203C557.131 182.741 554.038 181.51 550.098 181.51C547.451 181.51 545.112 182.079 543.081 183.218C541.081 184.357 539.511 186.019 538.372 188.204C537.264 190.358 536.695 192.959 536.664 196.006ZM646.634 166.091V180.864H603.931V166.091H646.634ZM613.626 149.102H633.292V215.21C633.292 217.026 633.569 218.442 634.123 219.457C634.677 220.442 635.447 221.135 636.431 221.535C637.447 221.935 638.617 222.135 639.94 222.135C640.863 222.135 641.786 222.058 642.71 221.904C643.633 221.72 644.341 221.581 644.833 221.489L647.926 236.123C646.942 236.431 645.557 236.785 643.772 237.185C641.987 237.616 639.817 237.877 637.262 237.97C632.523 238.154 628.368 237.523 624.798 236.077C621.259 234.63 618.504 232.384 616.534 229.337C614.565 226.29 613.595 222.443 613.626 217.796V149.102ZM682.636 263.591C680.143 263.591 677.804 263.391 675.619 262.991C673.464 262.622 671.679 262.144 670.264 261.56L674.695 246.879C677.004 247.587 679.081 247.972 680.928 248.033C682.805 248.095 684.421 247.664 685.775 246.741C687.16 245.818 688.283 244.248 689.145 242.032L690.299 239.031L664.862 166.091H685.544L700.225 218.165H700.963L715.782 166.091H736.602L709.042 244.663C707.719 248.48 705.918 251.804 703.641 254.635C701.394 257.497 698.547 259.698 695.1 261.237C691.653 262.806 687.499 263.591 682.636 263.591Z" fill="white"/>
<defs>
<linearGradient id="paint0_linear_1_33" x1="16.4946" y1="302.799" x2="195.161" y2="94.7989" gradientUnits="userSpaceOnUse">
<stop stop-color="#89DB37"/>
<stop offset="1" stop-color="#2EC733"/>
</linearGradient>
</defs>
</svg>
